# Blender v2.92.0 OBJ File: 'Apartment.blend'
# www.blender.org
mtllib Apartment2.mtl
o obj_0
v -150.000000 129.000000 -100.000000
v -150.000000 95.000000 30.000000
v -150.000000 127.000000 30.000000
v -150.000000 127.000000 60.000000
v -150.000000 129.000000 60.000000
v -150.000000 42.000000 60.000000
v -150.000000 53.000000 60.000000
v -150.000000 53.000000 30.000000
v 150.000000 95.000000 30.000000
v 150.000000 127.000000 30.000000
v 147.000000 95.000000 30.000000
v 20.000000 127.000000 30.000000
v 150.000000 0.000000 -100.000000
v 150.000000 129.000000 -100.000000
v 150.000000 53.000000 30.000000
v 20.000000 86.000000 30.000000
v 147.000000 86.000000 30.000000
v -150.000000 84.000000 30.000000
v 150.000000 84.000000 30.000000
v 150.000000 84.000000 60.000000
v 150.000000 95.000000 60.000000
v -20.000000 42.000000 60.000000
v -150.000000 42.000000 30.000000
v -20.000000 42.000000 30.000000
v -150.000000 84.000000 60.000000
v 150.000000 42.000000 30.000000
v 150.000000 2.000000 30.000000
v 10.000000 2.000000 60.000000
v 20.000000 2.000000 60.000000
v 10.000000 22.000000 60.000000
v 20.000000 42.000000 60.000000
v 20.000000 84.000000 60.000000
v 20.000000 95.000000 60.000000
v -20.000000 95.000000 60.000000
v -20.000000 127.000000 60.000000
v 20.000000 127.000000 60.000000
v -150.000000 0.000000 -100.000000
v -150.000000 2.000000 30.000000
v -20.000000 2.000000 30.000000
v -20.000000 2.000000 60.000000
v -10.000000 22.000000 60.000000
v -10.000000 2.000000 60.000000
v -20.000000 84.000000 60.000000
v -20.000000 53.000000 60.000000
v 20.000000 53.000000 60.000000
v -147.000000 53.000000 57.000000
v -147.000000 53.000000 30.000000
v 150.000000 42.000000 60.000000
v 150.000000 53.000000 60.000000
v 150.000000 129.000000 60.000000
v 150.000000 127.000000 60.000000
v -20.000000 53.000000 57.000000
v 150.000000 0.000000 100.000000
v 150.000000 2.000000 100.000000
v 10.000000 2.000000 62.000000
v -10.000000 2.000000 62.000000
v -150.000000 2.000000 100.000000
v -147.000000 44.000000 57.000000
v -147.000000 44.000000 30.000000
v 20.000000 95.000000 57.000000
v -150.000000 95.000000 60.000000
v 20.000000 86.000000 57.000000
v -20.000000 44.000000 57.000000
v 20.000000 2.000000 30.000000
v 20.000000 53.000000 57.000000
v 20.000000 84.000000 30.000000
v 20.000000 44.000000 30.000000
v 20.000000 44.000000 57.000000
v -147.000000 95.000000 57.000000
v -147.000000 95.000000 30.000000
v -150.000000 0.000000 100.000000
v 20.000000 42.000000 30.000000
v -20.000000 95.000000 57.000000
v 147.000000 44.000000 57.000000
v 147.000000 44.000000 30.000000
v 147.000000 95.000000 57.000000
v 10.000000 22.000000 62.000000
v -147.000000 86.000000 57.000000
v -147.000000 86.000000 30.000000
v -10.000000 22.000000 62.000000
v -20.000000 86.000000 57.000000
v 147.000000 86.000000 57.000000
v -20.000000 127.000000 30.000000
v -20.000000 86.000000 30.000000
v 147.000000 53.000000 30.000000
v 147.000000 53.000000 57.000000
v -20.000000 84.000000 30.000000
v -20.000000 44.000000 30.000000
v -150.000000 129.000000 -100.000000
v -150.000000 129.000000 -100.000000
v -150.000000 129.000000 -100.000000
v -150.000000 127.000000 30.000000
v -150.000000 127.000000 30.000000
v -150.000000 127.000000 30.000000
v -150.000000 127.000000 30.000000
v -150.000000 129.000000 60.000000
v -150.000000 129.000000 60.000000
v 150.000000 95.000000 30.000000
v 150.000000 95.000000 30.000000
v 150.000000 95.000000 30.000000
v 150.000000 127.000000 30.000000
v 150.000000 127.000000 30.000000
v 150.000000 127.000000 30.000000
v 150.000000 127.000000 30.000000
v 147.000000 95.000000 30.000000
v 147.000000 95.000000 30.000000
v 147.000000 95.000000 30.000000
v 150.000000 0.000000 -100.000000
v 150.000000 0.000000 -100.000000
v 150.000000 0.000000 -100.000000
v 150.000000 129.000000 -100.000000
v 150.000000 129.000000 -100.000000
v 150.000000 129.000000 -100.000000
v 150.000000 84.000000 30.000000
v 150.000000 84.000000 30.000000
v 150.000000 84.000000 30.000000
v 150.000000 84.000000 30.000000
v 150.000000 95.000000 60.000000
v 150.000000 95.000000 60.000000
v 150.000000 95.000000 60.000000
v -20.000000 95.000000 60.000000
v -20.000000 95.000000 60.000000
v -20.000000 95.000000 60.000000
v -20.000000 95.000000 60.000000
v -150.000000 95.000000 60.000000
v -150.000000 95.000000 60.000000
v -150.000000 95.000000 60.000000
v 150.000000 2.000000 30.000000
v 150.000000 2.000000 30.000000
v 150.000000 2.000000 30.000000
v 150.000000 2.000000 30.000000
v 20.000000 2.000000 60.000000
v 20.000000 2.000000 60.000000
v 20.000000 42.000000 60.000000
v 20.000000 42.000000 60.000000
v 20.000000 42.000000 60.000000
v 20.000000 42.000000 60.000000
v 20.000000 95.000000 60.000000
v 20.000000 95.000000 60.000000
v 20.000000 95.000000 60.000000
v 20.000000 95.000000 60.000000
v 20.000000 127.000000 60.000000
v 20.000000 127.000000 60.000000
v 20.000000 127.000000 60.000000
v -150.000000 0.000000 -100.000000
v -150.000000 0.000000 -100.000000
v -150.000000 0.000000 -100.000000
v -150.000000 2.000000 30.000000
v -150.000000 2.000000 30.000000
v -150.000000 2.000000 30.000000
v -10.000000 22.000000 60.000000
v -10.000000 22.000000 60.000000
v -10.000000 2.000000 60.000000
v -10.000000 2.000000 60.000000
v -150.000000 84.000000 60.000000
v -150.000000 84.000000 60.000000
v -20.000000 84.000000 60.000000
v -20.000000 84.000000 60.000000
v -20.000000 84.000000 60.000000
v -20.000000 84.000000 60.000000
v 20.000000 53.000000 60.000000
v 20.000000 53.000000 60.000000
v 20.000000 53.000000 60.000000
v 20.000000 53.000000 60.000000
v 150.000000 53.000000 60.000000
v 150.000000 53.000000 60.000000
v 150.000000 53.000000 60.000000
v 150.000000 0.000000 100.000000
v 150.000000 0.000000 100.000000
v 150.000000 0.000000 100.000000
v 150.000000 2.000000 100.000000
v 150.000000 2.000000 100.000000
v 150.000000 2.000000 100.000000
v 20.000000 95.000000 57.000000
v 20.000000 95.000000 57.000000
v 20.000000 2.000000 30.000000
v 20.000000 2.000000 30.000000
v 20.000000 53.000000 57.000000
v 20.000000 53.000000 57.000000
v 20.000000 44.000000 57.000000
v 20.000000 44.000000 57.000000
v -147.000000 95.000000 57.000000
v -147.000000 95.000000 57.000000
v -147.000000 95.000000 57.000000
v -147.000000 95.000000 30.000000
v -147.000000 95.000000 30.000000
v -147.000000 95.000000 30.000000
v -150.000000 0.000000 100.000000
v -150.000000 0.000000 100.000000
v -150.000000 0.000000 100.000000
v -147.000000 86.000000 57.000000
v -147.000000 86.000000 57.000000
v -10.000000 22.000000 62.000000
v -10.000000 22.000000 62.000000
v -20.000000 95.000000 57.000000
v -20.000000 95.000000 57.000000
v -20.000000 86.000000 57.000000
v -20.000000 86.000000 57.000000
v 147.000000 86.000000 30.000000
v 147.000000 86.000000 30.000000
v 147.000000 86.000000 57.000000
v 147.000000 86.000000 57.000000
v -20.000000 86.000000 30.000000
v -20.000000 86.000000 30.000000
v 147.000000 53.000000 30.000000
v 147.000000 53.000000 30.000000
v 147.000000 53.000000 30.000000
v 147.000000 53.000000 57.000000
v 147.000000 53.000000 57.000000
v 147.000000 53.000000 57.000000
v 20.000000 86.000000 30.000000
v 20.000000 86.000000 30.000000
v 20.000000 86.000000 57.000000
v 20.000000 86.000000 57.000000
v -20.000000 127.000000 60.000000
v -20.000000 127.000000 60.000000
v -20.000000 127.000000 60.000000
v -20.000000 127.000000 30.000000
v -20.000000 127.000000 30.000000
v -147.000000 86.000000 30.000000
v -147.000000 86.000000 30.000000
v 20.000000 84.000000 60.000000
v 20.000000 84.000000 60.000000
v 20.000000 84.000000 60.000000
v 20.000000 84.000000 60.000000
v -20.000000 84.000000 30.000000
v -20.000000 84.000000 30.000000
v -150.000000 95.000000 30.000000
v -150.000000 95.000000 30.000000
v -150.000000 95.000000 30.000000
v -150.000000 42.000000 60.000000
v -150.000000 42.000000 60.000000
v -150.000000 53.000000 60.000000
v -150.000000 53.000000 60.000000
v -150.000000 53.000000 60.000000
v 20.000000 127.000000 30.000000
v 20.000000 127.000000 30.000000
v -150.000000 84.000000 30.000000
v -150.000000 84.000000 30.000000
v -150.000000 84.000000 30.000000
v -150.000000 84.000000 30.000000
v 150.000000 127.000000 60.000000
v 150.000000 127.000000 60.000000
v -20.000000 42.000000 60.000000
v -20.000000 42.000000 60.000000
v -20.000000 42.000000 60.000000
v -20.000000 42.000000 60.000000
v -20.000000 42.000000 30.000000
v -20.000000 42.000000 30.000000
v 150.000000 42.000000 30.000000
v 150.000000 42.000000 30.000000
v 150.000000 42.000000 30.000000
v -20.000000 2.000000 60.000000
v -20.000000 2.000000 60.000000
v -147.000000 53.000000 57.000000
v -147.000000 53.000000 57.000000
v -147.000000 53.000000 57.000000
v -147.000000 53.000000 30.000000
v -147.000000 53.000000 30.000000
v -147.000000 53.000000 30.000000
v 150.000000 42.000000 60.000000
v 150.000000 42.000000 60.000000
v 150.000000 129.000000 60.000000
v 150.000000 129.000000 60.000000
v -20.000000 53.000000 57.000000
v -20.000000 53.000000 57.000000
v -10.000000 2.000000 62.000000
v -10.000000 2.000000 62.000000
v -150.000000 2.000000 100.000000
v -150.000000 2.000000 100.000000
v -147.000000 44.000000 57.000000
v -147.000000 44.000000 57.000000
v -20.000000 44.000000 57.000000
v -20.000000 44.000000 57.000000
v 20.000000 84.000000 30.000000
v 20.000000 84.000000 30.000000
v 20.000000 44.000000 30.000000
v 20.000000 44.000000 30.000000
v 20.000000 42.000000 30.000000
v 20.000000 42.000000 30.000000
v 147.000000 44.000000 57.000000
v 147.000000 44.000000 57.000000
v 147.000000 44.000000 30.000000
v 147.000000 44.000000 30.000000
v 10.000000 22.000000 60.000000
v 10.000000 22.000000 60.000000
v 10.000000 22.000000 62.000000
v 10.000000 22.000000 62.000000
v -150.000000 42.000000 30.000000
v -150.000000 42.000000 30.000000
v -150.000000 42.000000 30.000000
v -20.000000 44.000000 30.000000
v -20.000000 44.000000 30.000000
v -150.000000 127.000000 60.000000
v -150.000000 127.000000 60.000000
v -150.000000 53.000000 30.000000
v -150.000000 53.000000 30.000000
v -150.000000 53.000000 30.000000
v 150.000000 53.000000 30.000000
v 150.000000 53.000000 30.000000
v 150.000000 53.000000 30.000000
v 150.000000 84.000000 60.000000
v 150.000000 84.000000 60.000000
v 147.000000 95.000000 57.000000
v 147.000000 95.000000 57.000000
v 147.000000 95.000000 57.000000
v -20.000000 2.000000 30.000000
v -20.000000 2.000000 30.000000
v -20.000000 53.000000 60.000000
v -20.000000 53.000000 60.000000
v -20.000000 53.000000 60.000000
v -20.000000 53.000000 60.000000
v 10.000000 2.000000 62.000000
v 10.000000 2.000000 62.000000
v -147.000000 44.000000 30.000000
v -147.000000 44.000000 30.000000
v 10.000000 2.000000 60.000000
v 10.000000 2.000000 60.000000
vt 0.987240 0.207336
vt 0.939392 0.207336
vt 0.944176 0.202551
vt 0.987240 0.202551
vt 0.429064 0.172102
vt 0.480105 0.172102
vt 0.429064 0.176894
vt 0.514553 0.384494
vt 0.500195 0.384494
vt 0.450756 0.389280
vt 0.450756 0.181944
vt 0.514553 0.181944
vt 0.585327 0.872408
vt 0.570976 0.872408
vt 0.570976 0.829346
vt 0.585327 0.829346
vt 0.683035 0.597634
vt 0.700583 0.597634
vt 0.724576 0.645478
vt 0.707028 0.645478
vt 0.245613 0.999998
vt 0.245613 0.797447
vt 0.288673 0.797447
vt 0.288673 0.999998
vt 0.980862 0.893143
vt 0.933014 0.893143
vt 0.937798 0.888357
vt 0.980862 0.888357
vt 0.810458 0.578713
vt 0.810458 0.610619
vt 0.842349 0.610619
vt 0.842349 0.626564
vt 0.778567 0.626564
vt 0.778567 0.562767
vt 0.842349 0.562767
vt 0.842349 0.578713
vt 0.121216 0.749603
vt 0.121216 0.685806
vt 0.138763 0.685806
vt 0.138763 0.749603
vt 0.054230 0.685806
vt 0.071777 0.685806
vt 0.071777 0.749603
vt 0.054230 0.749603
vt 0.852097 0.645478
vt 0.834553 0.645478
vt 0.834553 0.597634
vt 0.852097 0.597634
vt 0.944176 0.000000
vt 0.944176 0.202551
vt 0.939392 0.207336
vt 0.939392 0.000000
vt 0.996811 0.409882
vt 0.982456 0.409882
vt 0.982456 0.207336
vt 0.996811 0.207336
vt 0.168207 0.171778
vt 0.219248 0.171778
vt 0.236796 0.171778
vt 0.286234 0.171778
vt 0.303782 0.171778
vt 0.367563 0.171778
vt 0.370752 0.379114
vt 0.165018 0.379114
vt 0.466388 0.331129
vt 0.463198 0.123792
vt 0.463198 0.075948
vt 0.466388 0.075948
vt 0.837322 0.893143
vt 0.837322 0.685806
vt 0.842106 0.690598
vt 0.842106 0.893143
vt 0.264939 0.416026
vt 0.261750 0.208689
vt 0.240946 0.097048
vt 0.179840 0.192606
vt 0.183053 0.192606
vt 0.204010 0.305073
vt 0.280192 0.259508
vt 0.280192 0.401357
vt 0.203813 0.401357
vt 0.203813 0.074013
vt 0.280192 0.074013
vt 0.280192 0.215861
vt 0.247460 0.215861
vt 0.247460 0.226770
vt 0.245278 0.226770
vt 0.245278 0.248599
vt 0.247460 0.248599
vt 0.247460 0.259508
vt 0.598902 0.825377
vt 0.574942 0.825377
vt 0.574942 0.801417
vt 0.598902 0.801417
vt 0.599682 0.872408
vt 0.585327 0.872408
vt 0.585327 0.829346
vt 0.599682 0.829346
vt 0.588187 0.032627
vt 0.765863 0.032627
vt 0.765863 0.445842
vt 0.588187 0.445842
vt 0.553041 0.039600
vt 0.553041 0.438870
vt 0.340098 0.438870
vt 0.340098 0.039600
vt 0.427433 0.797447
vt 0.470495 0.797447
vt 0.470495 0.811802
vt 0.475281 0.811802
vt 0.475281 0.861244
vt 0.427433 0.861244
vt 0.296485 0.033739
vt 0.296485 0.444731
vt 0.022493 0.444731
vt 0.022493 0.033739
vt 0.236584 0.280528
vt 0.246968 0.280528
vt 0.277174 0.280528
vt 0.279062 0.403241
vt 0.157293 0.403241
vt 0.159180 0.280528
vt 0.196938 0.280528
vt 0.207322 0.280528
vt 0.489632 0.904305
vt 0.475281 0.904305
vt 0.475281 0.861244
vt 0.489632 0.861244
vt 0.480971 0.135821
vt 0.480971 0.343158
vt 0.417174 0.343158
vt 0.417174 0.135821
vt 0.570974 0.861244
vt 0.523127 0.861244
vt 0.523127 0.797448
vt 0.570974 0.797448
vt 0.721309 0.594584
vt 0.721309 0.801920
vt 0.703762 0.801920
vt 0.703762 0.594584
vt 0.336521 0.797447
vt 0.379585 0.797447
vt 0.379585 0.862839
vt 0.331738 0.862839
vt 0.331738 0.811798
vt 0.336521 0.811798
vt 0.937798 0.685806
vt 0.937798 0.888357
vt 0.933014 0.893143
vt 0.933014 0.685806
vt 0.245613 1.000000
vt 0.202553 1.000000
vt 0.202553 0.797455
vt 0.245613 0.797455
vt 0.475281 0.861244
vt 0.475281 0.925040
vt 0.427433 0.925040
vt 0.427433 0.861244
vt 0.982452 0.409882
vt 0.939392 0.409882
vt 0.939392 0.207336
vt 0.982452 0.207336
vt 0.885166 0.893143
vt 0.885166 0.685806
vt 0.889950 0.690598
vt 0.889950 0.893143
vt 0.591365 0.799532
vt 0.591365 0.825309
vt 0.588788 0.825309
vt 0.588788 0.799532
vt 0.995216 0.888357
vt 0.980862 0.888357
vt 0.980862 0.685806
vt 0.995216 0.685806
vt 0.889950 0.690598
vt 0.885166 0.685806
vt 0.933014 0.685806
vt 0.933014 0.690598
vt 0.920258 0.478470
vt 0.920258 0.685806
vt 0.872410 0.685806
vt 0.872410 0.478470
vt 0.595787 0.826941
vt 0.595787 0.799853
vt 0.598495 0.799853
vt 0.598495 0.826941
vt 0.503482 0.311137
vt 0.554515 0.311137
vt 0.554515 0.315928
vt 0.982452 0.681019
vt 0.968102 0.681019
vt 0.968102 0.478468
vt 0.982452 0.478468
vt 0.968102 0.478470
vt 0.968102 0.685806
vt 0.920254 0.685806
vt 0.920254 0.478470
vt 0.589606 0.825796
vt 0.589606 0.804098
vt 0.591776 0.804098
vt 0.591776 0.825796
vt 0.699607 0.526526
vt 0.699607 0.733862
vt 0.682059 0.733862
vt 0.682059 0.526526
vt 0.897848 0.568105
vt 0.915392 0.568105
vt 0.915392 0.615949
vt 0.897848 0.615949
vt 0.682101 0.311137
vt 0.682101 0.315928
vt 0.632663 0.311137
vt 0.744395 0.538927
vt 0.761942 0.538927
vt 0.761942 0.746264
vt 0.744395 0.746264
vt 0.939396 0.207336
vt 0.939396 0.414673
vt 0.891548 0.414673
vt 0.891548 0.207336
vt 0.766097 0.531026
vt 0.783645 0.531026
vt 0.783645 0.738362
vt 0.766097 0.738362
vt 0.294064 0.472165
vt 0.294064 -0.006304
vt 0.297253 -0.006304
vt 0.297253 0.201032
vt 0.297253 0.264829
vt 0.297253 0.472165
vt 0.304781 0.207459
vt 0.301592 0.414795
vt 0.277599 0.159615
vt 0.280788 0.159615
vt 0.581178 0.380669
vt 0.515786 0.380669
vt 0.515786 0.173333
vt 0.566819 0.178124
vt 0.581178 0.178124
vt 0.842106 0.690598
vt 0.837322 0.685806
vt 0.885170 0.685806
vt 0.885170 0.690598
vt 0.939396 0.000000
vt 0.939396 0.207336
vt 0.891548 0.207336
vt 0.891548 0.000000
vt 0.545496 0.379437
vt 0.594935 0.374651
vt 0.594935 0.379437
vt 0.384369 0.848480
vt 0.379585 0.848480
vt 0.379585 0.797447
vt 0.427433 0.797447
vt 0.427433 0.862839
vt 0.384369 0.862839
vt 0.789474 0.685806
vt 0.789474 0.893143
vt 0.741627 0.893143
vt 0.741627 0.685806
vt 0.429041 0.444311
vt 0.427144 0.444311
vt 0.429041 0.159769
vt 0.323752 0.111881
vt 0.325402 0.111881
vt 0.323752 0.359387
vt 0.288677 0.999998
vt 0.288677 0.797447
vt 0.331738 0.797447
vt 0.331738 0.999998
vt 0.578342 0.212575
vt 0.578342 0.415120
vt 0.514545 0.415120
vt 0.514545 0.207784
vt 0.563984 0.212575
vt 0.614037 0.872406
vt 0.599682 0.872406
vt 0.599682 0.829346
vt 0.614037 0.829346
vt 0.121216 0.749603
vt 0.071777 0.749603
vt 0.071777 0.685806
vt 0.121216 0.685806
vt 0.480064 0.797447
vt 0.523129 0.797447
vt 0.523129 0.861244
vt 0.475281 0.861244
vt 0.475281 0.811802
vt 0.480064 0.811802
vt 0.544764 0.135821
vt 0.544764 0.343158
vt 0.480967 0.343158
vt 0.480967 0.135821
vt 0.375160 0.177240
vt 0.375160 0.275523
vt 0.372351 0.458052
vt 0.372351 0.177240
vt 0.003189 0.749603
vt 0.003189 0.685806
vt 0.054230 0.685806
vt 0.054230 0.749603
vt 0.385365 0.389282
vt 0.319973 0.389282
vt 0.319973 0.186737
vt 0.334324 0.186737
vt 0.385365 0.181945
vt 0.616049 0.597634
vt 0.633597 0.597634
vt 0.657589 0.645478
vt 0.640042 0.645478
vt 0.996803 0.612427
vt 0.982452 0.612427
vt 0.982452 0.409882
vt 0.996803 0.409882
vt 0.837322 0.685806
vt 0.837322 0.893143
vt 0.789474 0.893143
vt 0.789474 0.685806
vn 0.0000 1.0000 0.0000
vn 0.0000 0.0000 1.0000
vn -1.0000 0.0000 0.0000
vn 1.0000 0.0000 0.0000
vn 0.0000 0.0000 -1.0000
vn 0.0000 -1.0000 0.0000
usemtl color_15277357
s 1
f 296/1/1 234/2/1 255/3/1 258/4/1
f 98/5/2 101/6/2 105/7/2
f 284/8/2 206/9/2 115/10/2 275/11/2 277/12/2
f 201/13/3 305/14/3 106/15/3 199/16/3
f 166/17/4 261/18/4 251/19/4 300/20/4
f 272/21/1 273/22/1 292/23/1 316/24/1
f 229/25/1 127/26/1 182/27/1 185/28/1
f 151/29/2 286/30/2 317/31/2 132/32/2 134/33/2 246/34/2 253/35/2 153/36/2
f 163/37/2 310/38/2 247/39/2 136/40/2
f 122/41/2 159/42/2 224/43/2 139/44/2
f 298/45/3 289/46/3 231/47/3 233/48/3
f 265/49/1 256/50/1 235/51/1 311/52/1
f 180/53/5 179/54/5 209/55/5 282/56/5
f 103/57/4 99/58/4 114/59/4 299/60/4 250/61/4 128/62/4 108/63/4 111/64/4
f 89/65/3 92/66/3 294/67/3 96/68/3
f 161/69/1 165/70/1 210/71/1 178/72/1
f 109/73/4 130/74/4 168/75/4
f 171/76/4 169/77/4 131/78/4
f 307/79/1 149/80/1 269/81/1 173/82/1 129/83/1 176/84/1 133/85/1 318/86/1 313/87/1 267/88/1 154/89/1 254/90/1
f 314/91/2 288/92/2 194/93/2 268/94/2
f 281/95/3 208/96/3 205/97/3 283/98/3
f 112/99/5 110/100/5 145/101/5 90/102/5
f 113/103/1 1/104/1 97/105/1 264/106/1
f 293/107/3 274/108/3 266/109/3 309/110/3 158/111/3 226/112/3
f 147/113/6 13/114/6 170/115/6 188/116/6
f 238/117/3 228/118/3 93/119/3 91/120/3 146/121/3 148/122/3 291/123/3 297/124/3
f 220/125/4 186/126/4 183/127/4 191/128/4
f 38/129/2 308/130/2 249/131/2 290/132/2
f 245/133/3 248/134/3 39/135/3 40/136/3
f 223/137/2 303/138/2 119/139/2 138/140/2
f 213/141/4 211/142/4 237/143/4 142/144/4 140/145/4 174/146/4
f 196/147/1 184/148/1 125/149/1 121/150/1
f 278/151/1 181/152/1 74/153/1 75/154/1
f 177/155/4 280/156/4 135/157/4 29/158/4
f 212/159/1 214/160/1 202/161/1 200/162/1
f 141/163/1 120/164/1 304/165/1 175/166/1
f 28/167/4 285/168/4 287/169/4 55/170/4
f 271/171/5 257/172/5 52/173/5 63/174/5
f 306/175/1 118/176/1 100/177/1 107/178/1
f 23/179/6 24/180/6 244/181/6 232/182/6
f 152/183/3 42/184/3 56/185/3 193/186/3
f 94/187/2 230/188/2 187/189/2
f 192/190/5 69/191/5 195/192/5 197/193/5
f 279/194/6 252/195/6 262/196/6 137/197/6
f 80/198/1 77/199/1 30/200/1 41/201/1
f 155/202/2 157/203/2 124/204/2 126/205/2
f 156/206/3 61/207/3 2/208/3 239/209/3
f 8/210/2 260/211/2 241/212/2
f 7/213/2 6/214/2 22/215/2 44/216/2
f 236/217/6 102/218/6 242/219/6 143/220/6
f 164/221/2 31/222/2 48/223/2 167/224/2
f 263/225/2 5/226/2 295/227/2 216/228/2 144/229/2 243/230/2
f 10/231/4 14/232/4 50/233/4 51/234/4
f 204/235/2 219/236/2 95/237/2 70/238/2 221/239/2
f 86/240/1 49/241/1 301/242/1 207/243/1
f 276/244/6 116/245/6 302/246/6 225/247/6
f 19/248/2 85/249/2 15/250/2
f 73/251/3 123/252/3 215/253/3 218/254/3 203/255/3 198/256/3
f 3/257/6 83/258/6 35/259/6 4/260/6
f 53/261/2 172/262/2 189/263/2
f 270/264/2 190/265/2 54/266/2
f 78/267/1 81/268/1 84/269/1 79/270/1
f 315/271/2 88/272/2 227/273/2 240/274/2 259/275/2
f 59/276/4 47/277/4 46/278/4 58/279/4
f 162/280/2 222/281/2 43/282/2 312/283/2
f 68/284/4 67/285/4 66/286/4 32/287/4 45/288/4 65/289/4
f 64/290/2 27/291/2 26/292/2 72/293/2
f 57/294/3 150/295/3 37/296/3 71/297/3
f 36/298/2 217/299/2 34/300/2 33/301/2
f 12/302/2 16/303/2 17/304/2 11/305/2 104/306/2
f 21/307/4 20/308/4 117/309/4 9/310/4
f 62/311/5 60/312/5 76/313/5 82/314/5
f 18/315/6 87/316/6 160/317/6 25/318/6
